<mxfile host="Electron" agent="Mozilla/5.0 (Windows NT 10.0; Win64; x64) AppleWebKit/537.36 (KHTML, like Gecko) draw.io/24.7.17 Chrome/128.0.6613.36 Electron/32.0.1 Safari/537.36" version="24.7.17">
  <diagram name="PÃ¡gina-1" id="zjFu5K_Gx4b6n6f-Lk5r">
    <mxGraphModel dx="988" dy="573" grid="1" gridSize="10" guides="1" tooltips="1" connect="1" arrows="1" fold="1" page="1" pageScale="1" pageWidth="827" pageHeight="1169" math="0" shadow="0">
      <root>
        <mxCell id="0" />
        <mxCell id="1" parent="0" />
        <mxCell id="txD7uyRQ64k5f47rS_Iz-1" value="PRODUCTO" style="whiteSpace=wrap;html=1;align=center;" parent="1" vertex="1">
          <mxGeometry x="60" y="120" width="100" height="40" as="geometry" />
        </mxCell>
        <mxCell id="txD7uyRQ64k5f47rS_Iz-2" value="PAIS" style="whiteSpace=wrap;html=1;align=center;" parent="1" vertex="1">
          <mxGeometry x="520" y="120" width="60" height="40" as="geometry" />
        </mxCell>
        <mxCell id="txD7uyRQ64k5f47rS_Iz-3" value="Exportar" style="shape=rhombus;perimeter=rhombusPerimeter;whiteSpace=wrap;html=1;align=center;" parent="1" vertex="1">
          <mxGeometry x="280" y="110" width="120" height="60" as="geometry" />
        </mxCell>
        <mxCell id="txD7uyRQ64k5f47rS_Iz-4" value="0, M" style="endArrow=none;html=1;rounded=0;exitX=1;exitY=0.5;exitDx=0;exitDy=0;entryX=0;entryY=0.5;entryDx=0;entryDy=0;edgeStyle=orthogonalEdgeStyle;verticalAlign=bottom;" parent="1" source="txD7uyRQ64k5f47rS_Iz-1" target="txD7uyRQ64k5f47rS_Iz-3" edge="1">
          <mxGeometry relative="1" as="geometry">
            <mxPoint x="190" y="150" as="sourcePoint" />
            <mxPoint x="444" y="400" as="targetPoint" />
          </mxGeometry>
        </mxCell>
        <mxCell id="txD7uyRQ64k5f47rS_Iz-5" value="1, M" style="endArrow=none;html=1;rounded=0;exitX=0;exitY=0.5;exitDx=0;exitDy=0;entryX=1;entryY=0.5;entryDx=0;entryDy=0;edgeStyle=orthogonalEdgeStyle;verticalAlign=bottom;" parent="1" source="txD7uyRQ64k5f47rS_Iz-2" target="txD7uyRQ64k5f47rS_Iz-3" edge="1">
          <mxGeometry relative="1" as="geometry">
            <mxPoint x="190" y="150" as="sourcePoint" />
            <mxPoint x="444" y="400" as="targetPoint" />
          </mxGeometry>
        </mxCell>
        <mxCell id="txD7uyRQ64k5f47rS_Iz-6" value="&lt;b&gt;M : M&lt;/b&gt;&lt;div&gt;&lt;b&gt;opcional - obligatorio&lt;/b&gt;&lt;/div&gt;" style="text;html=1;align=center;verticalAlign=middle;whiteSpace=wrap;rounded=0;" parent="1" vertex="1">
          <mxGeometry x="250" y="80" width="180" height="30" as="geometry" />
        </mxCell>
        <mxCell id="txD7uyRQ64k5f47rS_Iz-7" value="&lt;u&gt;idProducto&lt;/u&gt;" style="ellipse;whiteSpace=wrap;html=1;align=center;" parent="1" vertex="1">
          <mxGeometry x="60" y="40" width="100" height="40" as="geometry" />
        </mxCell>
        <mxCell id="txD7uyRQ64k5f47rS_Iz-8" value="&lt;u&gt;codPais&lt;/u&gt;" style="ellipse;whiteSpace=wrap;html=1;align=center;" parent="1" vertex="1">
          <mxGeometry x="500" y="40" width="100" height="40" as="geometry" />
        </mxCell>
        <mxCell id="txD7uyRQ64k5f47rS_Iz-9" value="" style="endArrow=none;html=1;rounded=0;exitX=0.5;exitY=1;exitDx=0;exitDy=0;entryX=0.5;entryY=0;entryDx=0;entryDy=0;edgeStyle=orthogonalEdgeStyle;verticalAlign=bottom;" parent="1" source="txD7uyRQ64k5f47rS_Iz-7" target="txD7uyRQ64k5f47rS_Iz-1" edge="1">
          <mxGeometry relative="1" as="geometry">
            <mxPoint x="170" y="20" as="sourcePoint" />
            <mxPoint x="424" y="270" as="targetPoint" />
          </mxGeometry>
        </mxCell>
        <mxCell id="txD7uyRQ64k5f47rS_Iz-10" value="" style="endArrow=none;html=1;rounded=0;exitX=0.5;exitY=1;exitDx=0;exitDy=0;entryX=0.5;entryY=0;entryDx=0;entryDy=0;edgeStyle=orthogonalEdgeStyle;verticalAlign=bottom;" parent="1" source="txD7uyRQ64k5f47rS_Iz-8" target="txD7uyRQ64k5f47rS_Iz-2" edge="1">
          <mxGeometry relative="1" as="geometry">
            <mxPoint x="120" y="90" as="sourcePoint" />
            <mxPoint x="120" y="130" as="targetPoint" />
          </mxGeometry>
        </mxCell>
      </root>
    </mxGraphModel>
  </diagram>
</mxfile>
